<svg xmlns="http://www.w3.org/2000/svg" xml:space="preserve" viewBox="0 0 1000 1000"><path d="M326.26 11.52c-65.55 6.92-131.7 34.2-184.02 75.93-20.56 16.49-54.76 53.13-68.6 73.48-64.52 94.65-80.61 206.21-45.39 314.5 8.55 26.46 29.72 68.4 46.01 91.6 17.71 24.84 61.27 68.4 86.11 86.11 23.2 16.28 60.46 35.22 88.75 44.99 95.06 32.57 202.34 22.8 288.65-26.46l19.95-11.4L719.96 822.1C874.05 975.79 882.6 984.14 892.99 987.39c15.67 5.09 35.01 3.46 48.85-4.07 13.23-7.33 37.86-32.98 43.56-45.6 6.31-13.64 6.11-38.47-.41-51.09-3.26-6.31-53.74-58.42-164.48-169.16l-160-160.2 11.4-19.95c19.54-34.61 33.99-74.92 41.32-115.83 5.29-29.92 4.89-87.33-1.02-119.9-8.75-48.45-31.14-102.6-58.63-141.68-17.71-24.83-61.27-68.4-86.11-86.11-68.18-48.24-156.93-71.04-241.21-62.28zm76.34 114.8c48.04 7.94 90.18 28.91 126 63.1 30.13 28.7 51.09 61.27 63.1 97.91 8.96 28.29 11.4 43.97 11.4 76.13 0 68.19-21.78 120.71-70.03 169.16-45.19 44.99-94.86 67.18-157.96 70.43-79.59 4.07-156.13-32.37-204.38-97.1-44.17-59.24-58.22-137.2-37.66-209.46 6.11-21.37 24.02-58.01 36.44-74.5 55.18-73.68 143.93-109.92 233.09-95.67z"/></svg>